<?xml version="1.0" encoding="utf-8" ?><svg xmlns="http://www.w3.org/2000/svg" xmlns:xlink="http://www.w3.org/1999/xlink" width="1024" height="1024" viewBox="0 0 1024 1024"><path fill="#03FFE3" d="M511.248 151.679C529.817 151.569 536.424 169.881 544.669 183.753L569.806 225.611L670.135 391.929L843.247 676.259C858.992 701.933 874.031 728.052 889.956 753.609C898.845 767.875 907.759 782.05 916.31 796.528C919.979 802.74 924.281 809.016 927.104 815.645C929.137 820.42 927.975 865.173 927.972 874.088L514.256 874.075L96.1875 873.993C96.0426 865.374 95.1103 821.418 97.0132 816.849C100.034 809.596 105.333 802.881 109.299 796.075C123.441 771.809 138.36 747.936 152.943 723.93L287.578 502.178L434.456 259.071L472.096 196.034L485.185 173.959C492.306 162.011 495.784 153.239 511.248 151.679Z"/><path fill="white" d="M509.781 163.58C514.643 163.302 520.699 164.828 523.401 169.327C527.983 176.955 532.471 184.611 537.092 192.224L573.669 253.179L747.356 540.488L780.059 594.347C782.84 598.922 802.768 624.141 789.263 624.373C778.944 624.549 766.839 624.578 756.407 624.613L690.616 624.666L513.853 624.693L316.69 624.952L260.776 625.037C251.628 625.076 241.932 625.287 232.807 624.93C230.952 624.858 230.123 623.621 229.056 622.207C228.278 619.223 230.356 615.924 231.924 613.235C242.671 594.81 254.315 576.78 265.355 558.496L354.959 411.219L443.527 265.111L481.88 200.91C487.827 190.947 493.673 180.716 499.724 170.813C502.286 166.62 505.16 164.95 509.781 163.58Z"/><defs><linearGradient id="gradient_0" gradientUnits="userSpaceOnUse" x1="511.88626" y1="623.5423" x2="495.79718" y2="174.00833"><stop offset="0" stop-color="#00FFBF"/><stop offset="1" stop-color="#01D1CE"/></linearGradient></defs><path fill="url(#gradient_0)" d="M432.707 300.476C436.442 293.598 441.265 286.041 445.352 279.292L470.968 236.982L495.732 194.854C498.689 189.851 505.756 175.919 510.622 172.649C511.17 172.281 513.987 172.622 514.652 173.006C519.622 179.226 527.953 194.43 531.823 200.929C549.621 230.833 567.571 260.647 585.672 290.369L605.205 322.826C607.151 326.042 614.042 336.89 615.277 339.804C617.253 342.176 625.63 356.65 627.849 360.331C637.338 376.245 646.91 392.109 656.566 407.921L750.894 563.588C761.518 580.919 771.401 598.484 782.478 615.566C773.636 614.769 762.801 615.084 753.746 615.1L714.266 615.093C691.011 584.125 665.639 554.705 640.632 525.131C638.677 522.818 634.959 518.862 632.491 517.012C621.39 508.687 603.455 508.362 591.599 515.342C583.972 519.923 580.353 525.432 578.235 533.692L580.287 538.635C574.984 544.158 569.653 549.653 564.293 555.12C558.967 549.76 551.31 540.184 546.297 534.203C533.906 519.236 521.409 504.358 508.807 489.57C495 473.306 483.393 454.195 459.764 454.419C437.784 454.626 432.688 464.956 420.648 480.367C415.699 486.61 410.675 492.794 405.576 498.915C383.357 525.615 360.91 552.124 338.238 578.44C328.761 589.469 316.058 605.549 306.164 615.552C284.624 615.61 262.719 615.157 241.222 615.571C251.965 598.384 262.439 580.406 273.049 563.036L378.692 389.442L416.836 325.922C421.083 318.996 428.238 306.626 432.707 300.476Z"/><path fill="#03B6B8" d="M432.707 300.476C436.442 293.598 441.265 286.041 445.352 279.292L470.968 236.982L495.732 194.854C498.689 189.851 505.756 175.919 510.622 172.649C511.17 172.281 513.987 172.622 514.652 173.006C519.622 179.226 527.953 194.43 531.823 200.929C549.621 230.833 567.571 260.647 585.672 290.369L605.205 322.826C607.151 326.042 614.042 336.89 615.277 339.804L614.5 339.777C610.885 335.564 599.692 315.3 595.981 309.259C578.615 281.021 561.436 252.668 544.447 224.201L529.856 199.652C527.74 196.073 519.445 180.87 516.031 180.373C518.32 187.837 529.76 201.634 533.588 209.159C535.345 212.612 536.72 213.223 537.959 217.45C530.475 205.571 522.768 193.996 515.78 181.809C514.555 179.673 513.03 177.936 511.64 175.499C512.53 175.771 512.074 175.686 513.007 175.752C512.723 174.18 513.076 174.822 511.949 173.739C510.983 173.762 509.936 173.706 509.293 174.649C504.977 180.975 499.96 189.753 496.167 196.169L452.463 269.558C447.794 277.464 443.049 285.324 438.229 293.139C437.329 294.612 434.481 299.723 433.698 300.539L432.707 300.476Z"/><path fill="white" d="M509.509 287.312C542.995 283.628 573.097 307.864 576.645 341.365C580.193 374.866 555.835 404.869 522.32 408.281C488.997 411.673 459.203 387.485 455.675 354.176C452.148 320.867 476.215 290.975 509.509 287.312Z"/><defs><linearGradient id="gradient_1" gradientUnits="userSpaceOnUse" x1="517.4787" y1="298.0575" x2="536.12305" y2="381.42612"><stop offset="0" stop-color="#01DACB"/><stop offset="1" stop-color="#00F1CA"/></linearGradient></defs><path fill="url(#gradient_1)" d="M516.921 297.649C527.67 296.488 538.16 299.81 546.946 305.949C557.841 313.541 565.273 325.15 567.608 338.223C569.398 348.351 568.255 361.968 562.046 370.57C556.609 378.104 546.872 380.542 538.188 381.949C526.425 382.631 516.66 381.209 506.678 374.387C496.276 367.3 489.155 356.333 486.914 343.947C484.896 333.003 487.325 321.705 493.663 312.557C499.482 304.131 506.915 299.42 516.921 297.649Z"/><defs><linearGradient id="gradient_2" gradientUnits="userSpaceOnUse" x1="509.26117" y1="351.4173" x2="472.86896" y2="375.10333"><stop offset="0" stop-color="#00C2BA"/><stop offset="1" stop-color="#01EBCE"/></linearGradient></defs><path fill="url(#gradient_2)" d="M543.034 390.771C532.956 396.322 526.931 398.394 515.35 398.626C486.667 399.201 462.671 374.743 463.434 346.109C463.841 330.834 470.38 320.335 481.246 309.907L482.891 312.098C477.521 322.682 476.36 333.186 477.901 344.88C480.411 363.921 493.748 379.512 511.003 387.222C521.61 391.963 531.698 392.382 543.034 390.771Z"/><path fill="#03B6B8" d="M481.246 309.907C483.626 307.74 484.979 306.654 487.576 304.779C486.905 305.839 483.449 311.462 482.891 312.098L481.246 309.907Z"/><path fill="#03B6B8" d="M509.299 230.771C515.824 229.167 522.413 233.161 524.009 239.688C525.606 246.214 521.605 252.798 515.077 254.388C508.559 255.975 501.987 251.981 500.393 245.465C498.799 238.949 502.785 232.373 509.299 230.771Z"/><path fill="white" d="M509.251 234.786C511.921 233.732 514.952 234.204 517.175 236.02C519.398 237.835 520.465 240.711 519.965 243.538C519.465 246.364 517.476 248.7 514.765 249.643C510.691 251.06 506.232 248.959 504.731 244.915C503.23 240.871 505.239 236.37 509.251 234.786Z"/><path fill="#03FFE3" d="M547.216 452.081C553.423 450.075 560.083 453.468 562.11 459.669C564.137 465.87 560.767 472.542 554.573 474.59C548.349 476.648 541.638 473.257 539.601 467.027C537.564 460.796 540.978 454.096 547.216 452.081Z"/><path fill="white" d="M549.081 454.5C559.862 454.264 562.632 465.591 552.466 471.473C548.475 471.564 545.217 470.384 543.424 466.509C542.457 464.411 542.371 462.013 543.187 459.852C544.323 456.844 546.359 455.785 549.081 454.5Z"/><path fill="#03FFE3" d="M612.93 397.221C619.316 396.038 625.458 400.24 626.668 406.621C627.879 413.002 623.703 419.161 617.327 420.399C610.912 421.644 604.708 417.438 603.49 411.018C602.272 404.598 606.505 398.412 612.93 397.221Z"/><path fill="white" d="M612.338 400.76C615.123 399.738 618.242 400.295 620.501 402.218C622.76 404.14 623.809 407.13 623.246 410.042C622.683 412.954 620.596 415.338 617.784 416.28C613.52 417.709 608.899 415.448 607.41 411.204C605.921 406.961 608.116 402.308 612.338 400.76Z"/><path fill="white" d="M665.158 484.296C669.357 483.457 673.463 486.11 674.423 490.284C675.383 494.458 672.849 498.638 668.705 499.719C665.916 500.446 662.951 499.599 660.966 497.509C658.982 495.418 658.291 492.413 659.162 489.665C660.034 486.917 662.331 484.86 665.158 484.296Z"/><path fill="white" d="M404.314 402.286C408.325 400.696 412.868 402.636 414.494 406.633C416.12 410.629 414.22 415.19 410.238 416.851C406.206 418.533 401.575 416.605 399.929 412.557C398.282 408.51 400.252 403.897 404.314 402.286Z"/><path fill="white" d="M290.193 576.098C294.31 575.308 298.317 577.909 299.27 581.992C300.224 586.074 297.784 590.181 293.743 591.296C290.982 592.058 288.025 591.247 286.039 589.184C284.053 587.12 283.355 584.135 284.222 581.405C285.089 578.675 287.38 576.638 290.193 576.098Z"/><path fill="white" d="M353.738 483.732C356.427 482.951 359.329 483.684 361.325 485.648C363.321 487.613 364.1 490.503 363.361 493.204C362.622 495.905 360.482 497.997 357.764 498.673C353.673 499.69 349.521 497.246 348.425 493.176C347.328 489.107 349.69 484.908 353.738 483.732Z"/><path fill="white" d="M729.204 575.695C733.244 574.308 737.645 576.459 739.031 580.5C740.418 584.541 738.265 588.941 734.223 590.326C730.183 591.711 725.786 589.559 724.4 585.52C723.014 581.48 725.165 577.082 729.204 575.695Z"/><path fill="#03FFE3" d="M427.079 487.33C428.156 487.842 431.078 492.143 432.595 493.442C435.769 496.158 442.686 497.48 445.204 500.291C448.452 503.918 451.958 508.706 454.962 512.644L473.317 536.71L534.151 615.21C521.406 614.632 506.923 615.238 494.024 615.315L427.512 615.344C392.181 615.398 353.751 614.565 318.839 615.486C339.62 591.396 360.202 567.134 380.582 542.703C390.492 531.048 400.322 519.324 410.068 507.532C415.676 500.875 421.754 494.157 427.079 487.33Z"/><path fill="#03FFE3" d="M474.709 495.44L475.519 495.527C478.469 498.692 484.486 507.238 487.286 510.973C494.031 520.019 500.898 528.973 507.884 537.835C528.249 563.935 549.214 589.049 569.588 615.022L552.504 614.965L546.71 615.014C534.065 601.232 519.802 581.154 508.034 566.261L478.407 528.213C471.87 519.872 462.663 508.763 456.977 500.029C464.696 499.734 467.782 498.903 474.709 495.44Z"/><path fill="#03FFE3" d="M489.493 480.804C491.486 482.709 497.028 489.936 499.228 492.626C505.672 500.431 512.164 508.197 518.703 515.923C545.754 547.795 572.375 580.18 599.297 612.169C600.039 613.051 600.274 613.258 600.333 614.407C598.862 615.391 598.594 614.999 596.396 614.962L581.149 614.991C577.967 610.391 573.755 605.694 570.265 601.165C541.793 564.219 510.625 528.839 483.899 490.547C486.925 486.844 487.877 485.092 489.493 480.804Z"/><path fill="#03FFE3" d="M586.716 545.867C590.344 548.578 596.142 550.217 597.448 551.589C603.872 558.339 610.606 568.059 616.25 575.635C626.028 588.8 635.909 601.89 645.89 614.903C640.501 614.583 634.703 614.659 629.276 614.629L612.391 614.754C598.793 597.308 584.261 578.917 569.416 562.487C574.573 558.97 582.041 550.712 586.716 545.867Z"/><path fill="#03FFE3" d="M624.139 547.692C627.726 551.916 640.269 567.5 642.896 571.925C644.72 573.048 671.984 610.92 674.759 614.89C668.591 614.515 663.074 614.743 656.903 614.93C642.789 595.24 627.409 575.449 612.695 556.15C611.561 554.524 610.349 552.846 609.275 551.19C615.006 550.766 618.834 550.229 624.139 547.692Z"/><path fill="#03FFE3" d="M624.139 547.692C627.726 551.916 640.269 567.5 642.896 571.925C637.504 569.665 632.096 556.403 627.287 553.9C623.487 551.922 616.507 554.689 612.695 556.15C611.561 554.524 610.349 552.846 609.275 551.19C615.006 550.766 618.834 550.229 624.139 547.692Z"/><path fill="#03FFE3" d="M637.675 536.533C639.627 538.293 641.587 540.794 643.34 542.822C663.748 566.429 683.085 590.885 702.933 614.952L696.618 614.759C693.278 614.663 689.291 614.815 685.9 614.861C668.023 589.995 651.166 567.436 632.53 543.098C635.077 540.405 635.736 539.687 637.675 536.533Z"/><path fill="#03FFE3" d="M435.404 482.042C430.29 464.752 472.941 455.282 480.521 475.41C479.482 492.164 443.42 494.592 435.404 482.042Z"/><path fill="#03FFE3" d="M435.404 482.042C430.29 464.752 472.941 455.282 480.521 475.41C476.304 475.276 474.576 472.264 471.111 470.941C462.624 467.701 450.958 468.476 443.41 473.714C440.026 476.154 438.623 479.953 435.404 482.042Z"/><path fill="#03FFE3" d="M608.781 520.16C632.072 517.637 637.671 538.724 610.055 542.364C583.355 543.227 581.901 524.15 608.781 520.16Z"/></svg>